<svg xmlns="http://www.w3.org/2000/svg" viewBox="0 0 800 800" width="800" height="800"><defs><linearGradient id="g" x1="0" y1="0" x2="0" y2="1"><stop offset="0" stop-color="#F2E8E6"/><stop offset="1" stop-color="#E4C9C6"/></linearGradient><radialGradient id="s"><stop offset="0" stop-color="#FAF8F6"/><stop offset="1" stop-color="#FAF8F6" stop-opacity=".25"/></radialGradient></defs><rect width="800" height="800" fill="url(#g)"/><path d="M56 736V520A104 104 0 0 1 264 520V736Z" fill="#B98583" opacity="0.8"/><path d="M80 736V520A104 104 0 0 1 288 520V736Z" fill="none" stroke="#B89A6A" stroke-width="1.5" transform="translate(0 -20)"/><path d="M296 736V376.00000000000006A104 104 0 0 1 504 376.00000000000006V736Z" fill="#8F6261" opacity="0.85"/><path d="M536 736V232A104 104 0 0 1 744 232V736Z" fill="#B98583" opacity="0.9"/><circle cx="640" cy="128" r="72" fill="url(#s)"/><line x1="64" x2="736" y1="736" y2="736" stroke="#B89A6A" stroke-width="1.5"/><text x="400" y="772" text-anchor="middle" font-family="Inter,Arial,sans-serif" font-size="12.8" letter-spacing="3.2" fill="#8F6261" opacity=".6">IMAGEM DEMONSTRATIVA</text></svg>